<svg id="bingo" enable-background="new 0 0 300 300" height="512" viewBox="0 0 300 300" width="512" xmlns="http://www.w3.org/2000/svg"><path d="m147.674 182h20v72h-20z" fill="#bf7e68"/><path d="m167.674 258h-20c-2.209 0-4-1.791-4-4v-72c0-2.209 1.791-4 4-4h20c2.209 0 4 1.791 4 4v72c0 2.209-1.791 4-4 4zm-16-8h12v-64h-12z" fill="#4c241d"/><circle cx="127.674" cy="122" fill="#efefd2" r="92"/><g fill="#4c241d"><path d="m49.674 58c-7.719 0-14-6.281-14-14s6.281-14 14-14 14 6.281 14 14-6.281 14-14 14zm0-20c-3.309 0-6 2.691-6 6s2.691 6 6 6 6-2.691 6-6-2.692-6-6-6z"/><path d="m257.674 242c-7.719 0-14-6.281-14-14s6.281-14 14-14 14 6.281 14 14-6.281 14-14 14zm0-20c-3.309 0-6 2.691-6 6s2.691 6 6 6 6-2.691 6-6-2.692-6-6-6z"/><circle cx="257.674" cy="80" r="4.529"/><path d="m232.326 55.348c-1.023 0-2.047-.391-2.828-1.172-1.562-1.562-1.562-4.094 0-5.656l14.695-14.695c1.562-1.562 4.094-1.562 5.656 0s1.562 4.094 0 5.656l-14.695 14.695c-.781.781-1.804 1.172-2.828 1.172z"/><path d="m247.021 55.348c-1.023 0-2.047-.391-2.828-1.172l-14.695-14.696c-1.562-1.562-1.562-4.094 0-5.656s4.094-1.562 5.656 0l14.696 14.696c1.562 1.562 1.562 4.094 0 5.656-.782.781-1.805 1.172-2.829 1.172z"/><path d="m32.326 151.348c-1.023 0-2.047-.391-2.828-1.172-1.562-1.562-1.562-4.094 0-5.656l14.695-14.695c1.562-1.562 4.094-1.562 5.656 0s1.562 4.094 0 5.656l-14.695 14.695c-.781.781-1.804 1.172-2.828 1.172z"/><path d="m47.021 151.348c-1.023 0-2.047-.391-2.828-1.172l-14.695-14.696c-1.562-1.562-1.562-4.094 0-5.656s4.094-1.562 5.656 0l14.696 14.696c1.562 1.562 1.562 4.094 0 5.656-.782.781-1.805 1.172-2.829 1.172z"/></g><ellipse cx="154.083" cy="139.349" fill="#fff" rx="89.59" ry="89.349"/><path d="m154.084 232.699c-51.607 0-93.592-41.877-93.592-93.35s41.985-93.349 93.592-93.349c51.605 0 93.59 41.877 93.59 93.35s-41.985 93.349-93.59 93.349zm0-178.699c-47.195 0-85.592 38.287-85.592 85.35s38.396 85.35 85.592 85.35 85.59-38.287 85.59-85.35-38.395-85.35-85.59-85.35z" fill="#4c241d"/><circle cx="55.939" cy="212.289" fill="#9dc1e4" r="14.892"/><path d="m55.939 231.182c-10.418 0-18.893-8.475-18.893-18.893 0-10.416 8.475-18.891 18.893-18.891 10.416 0 18.891 8.475 18.891 18.891 0 10.418-8.475 18.893-18.891 18.893zm0-29.784c-6.006 0-10.893 4.885-10.893 10.891s4.887 10.893 10.893 10.893 10.891-4.887 10.891-10.893-4.885-10.891-10.891-10.891z" fill="#4c241d"/><circle cx="161.288" cy="93.157" fill="#ffce56" r="14.892"/><path d="m161.289 112.049c-10.418 0-18.893-8.475-18.893-18.893 0-10.416 8.475-18.891 18.893-18.891 10.416 0 18.891 8.475 18.891 18.891 0 10.418-8.475 18.893-18.891 18.893zm0-29.783c-6.006 0-10.893 4.885-10.893 10.891s4.887 10.893 10.893 10.893 10.891-4.887 10.891-10.893-4.885-10.891-10.891-10.891z" fill="#4c241d"/><circle cx="107.65" cy="107.904" fill="#f53e28" r="14.892"/><path d="m107.65 126.795c-10.418 0-18.893-8.475-18.893-18.891 0-10.418 8.475-18.893 18.893-18.893 10.416 0 18.891 8.475 18.891 18.893 0 10.416-8.475 18.891-18.891 18.891zm0-29.783c-6.006 0-10.893 4.887-10.893 10.893s4.887 10.891 10.893 10.891 10.891-4.885 10.891-10.891-4.885-10.893-10.891-10.893z" fill="#4c241d"/><circle cx="151.361" cy="135.759" fill="#9dc1e4" r="14.892"/><path d="m151.361 154.65c-10.418 0-18.893-8.475-18.893-18.891 0-10.418 8.475-18.893 18.893-18.893 10.416 0 18.891 8.475 18.891 18.893 0 10.417-8.475 18.891-18.891 18.891zm0-29.783c-6.006 0-10.893 4.887-10.893 10.893s4.887 10.891 10.893 10.891 10.891-4.885 10.891-10.891-4.885-10.893-10.891-10.893z" fill="#4c241d"/><circle cx="148.324" cy="178.506" fill="#a9ba5a" r="14.892"/><path d="m148.324 197.398c-10.416 0-18.891-8.475-18.891-18.893 0-10.416 8.475-18.891 18.891-18.891 10.418 0 18.893 8.475 18.893 18.891 0 10.419-8.475 18.893-18.893 18.893zm0-29.783c-6.006 0-10.891 4.885-10.891 10.891s4.885 10.893 10.891 10.893 10.893-4.887 10.893-10.893-4.887-10.891-10.893-10.891z" fill="#4c241d"/><circle cx="205.963" cy="119.904" fill="#bd53b5" r="14.892"/><path d="m205.963 138.795c-10.416 0-18.891-8.475-18.891-18.891 0-10.418 8.475-18.893 18.891-18.893 10.418 0 18.893 8.475 18.893 18.893-.001 10.416-8.475 18.891-18.893 18.891zm0-29.783c-6.006 0-10.891 4.887-10.891 10.893s4.885 10.891 10.891 10.891 10.893-4.885 10.893-10.891-4.887-10.893-10.893-10.893z" fill="#4c241d"/><circle cx="192.999" cy="162.651" fill="#fc8c29" r="14.892"/><path d="m193 181.543c-10.418 0-18.893-8.475-18.893-18.893 0-10.416 8.475-18.891 18.893-18.891 10.416 0 18.891 8.475 18.891 18.891 0 10.418-8.475 18.893-18.891 18.893zm0-29.783c-6.006 0-10.893 4.885-10.893 10.891s4.887 10.893 10.893 10.893 10.891-4.887 10.891-10.893-4.885-10.891-10.891-10.891z" fill="#4c241d"/><circle cx="107.65" cy="173.542" fill="#e7d1c4" r="14.892"/><path d="m107.689 192.438c-1.084 0-2.176-.092-3.268-.281-4.971-.861-9.311-3.607-12.217-7.734-2.906-4.125-4.031-9.135-3.17-14.107.861-4.971 3.607-9.311 7.734-12.217 4.125-2.906 9.129-4.033 14.107-3.17 4.971.861 9.311 3.607 12.217 7.734 2.906 4.125 4.031 9.135 3.17 14.107-.861 4.971-3.607 9.311-7.734 12.217-3.219 2.267-6.979 3.451-10.839 3.451zm-.062-29.79c-2.227 0-4.393.682-6.25 1.99-2.379 1.676-3.963 4.176-4.459 7.043-.496 2.865.152 5.756 1.828 8.133 1.676 2.379 4.176 3.963 7.043 4.459 5.908 1.029 11.566-2.953 12.592-8.871s-2.953-11.566-8.871-12.592c-.627-.109-1.258-.162-1.883-.162z" fill="#4c241d"/><path d="m91.786 218.036c1.161 5.657 5.704 9.977 11.417 10.827 17.246 2.565 55.749 7.701 91.195-3.076 29.543-8.982 49.276-36.877 49.276-67.755v-12.032s-27.837 79.534-135.613 55.892c-9.645-2.116-18.26 6.472-16.275 16.144z" fill="#ffce56"/><path d="m145.377 236.326c-19.18 0-35.217-2.385-42.762-3.506-7.328-1.09-13.254-6.709-14.748-13.98-1.211-5.896.629-11.943 4.92-16.178 4.266-4.209 10.291-5.957 16.131-4.676 103.107 22.613 130.713-52.545 130.98-53.309.643-1.842 2.525-2.959 4.445-2.621 1.924.326 3.33 1.992 3.33 3.943v12.031c0 32.818-21.43 62.254-52.111 71.582-16.876 5.132-34.572 6.714-50.185 6.714zm-49.674-19.096c.82 3.994 4.07 7.078 8.088 7.676 13.246 1.967 53.559 7.961 89.443-2.945 26.006-7.908 44.553-32.074 46.305-59.65-14.73 22.611-52.402 61.023-132.336 43.488-3.23-.699-6.432.227-8.797 2.559-2.355 2.324-3.365 5.64-2.703 8.872z" fill="#4c241d"/><path d="m235.674 266h-156c0-6.627 5.373-12 12-12h132c6.627 0 12 5.373 12 12z" fill="#bf7e68"/><path d="m235.674 270h-156c-2.209 0-4-1.791-4-4 0-8.822 7.178-16 16-16h132c8.822 0 16 7.178 16 16 0 2.209-1.791 4-4 4zm-150.926-8h145.852c-1.385-2.389-3.971-4-6.926-4h-132c-2.955 0-5.541 1.611-6.926 4z" fill="#4c241d"/></svg>