<svg height="512" viewBox="0 0 512 512" width="512" xmlns="http://www.w3.org/2000/svg"><g id="Fill_out_line" data-name="Fill out line"><path d="m416 468a19.99443 19.99443 0 0 1 -20 20h-200a20 20 0 0 1 0-40h200a20.00726 20.00726 0 0 1 20 20z" fill="#eebe33"/><path d="m240 448 16-112h80l16 112z" fill="#e44b4d"/><path d="m239.919 384h64.65v16h-64.65z" fill="#d14547" transform="matrix(.141 -.99 .99 .141 -154.318 606.07)"/><circle cx="296" cy="184" fill="#eebe33" r="160"/><circle cx="296" cy="184" fill="#eedc9a" r="136"/><g fill="#eebe33"><path d="m280 184v-96a16 16 0 0 1 16-16 16 16 0 0 1 16 16v96z"/><path d="m304 197.85641-83.13845 48a16 16 0 0 1 -21.85639-5.85641 16 16 0 0 1 5.8564-21.85639l83.13845-48z"/><path d="m304 170.14359 83.13845 48a16 16 0 0 1 5.8564 21.85641 16 16 0 0 1 -21.85639 5.8564l-83.13845-48z"/></g><circle cx="264" cy="280" fill="#e44b4d" r="16"/><circle cx="296" cy="248" fill="#8acce7" r="16"/><circle cx="336" cy="280" fill="#4ba477" r="16"/><circle cx="384" cy="152" fill="#9a6057" r="16"/><circle cx="248" cy="112" fill="#8acce7" r="16"/><circle cx="200" cy="176" fill="#4ba477" r="16"/><circle cx="296" cy="184" fill="#e88604" r="16"/><path d="m56 432h208v56h-208z" fill="#26507a"/><circle cx="96" cy="472" fill="#e44b4d" r="16"/><circle cx="128" cy="472" fill="#4ba477" r="16"/><circle cx="160" cy="472" fill="#8acce7" r="16"/><circle cx="192" cy="472" fill="#4ba477" r="16"/><circle cx="224" cy="472" fill="#9a6057" r="16"/><path d="m72 376h176a16 16 0 0 1 16 16v40a0 0 0 0 1 0 0h-208a0 0 0 0 1 0 0v-40a16 16 0 0 1 16-16z" fill="#396795"/><circle cx="96" cy="416" fill="#e44b4d" r="16"/><circle cx="128" cy="416" fill="#8acce7" r="16"/><circle cx="160" cy="416" fill="#e44b4d" r="16"/><path d="m248 368h-176a24.0275 24.0275 0 0 0 -24 24v96a7.99977 7.99977 0 0 0 8 8h208a7.99977 7.99977 0 0 0 8-8v-96a24.0275 24.0275 0 0 0 -24-24zm-176 16h176a8.00917 8.00917 0 0 1 8 8v32h-73.3761a23.98614 23.98614 0 0 0 -38.6239-25.86938 23.94411 23.94411 0 0 0 -32 0 23.98792 23.98792 0 0 0 -38.6239 25.86938h-9.3761v-32a8.00917 8.00917 0 0 1 8-8zm16 32a8 8 0 1 1 8 8 8.00917 8.00917 0 0 1 -8-8zm32 0a8 8 0 1 1 8 8 8.00917 8.00917 0 0 1 -8-8zm32 0a8 8 0 1 1 8 8 8.00917 8.00917 0 0 1 -8-8zm-64 56a8 8 0 1 1 8 8 8.00917 8.00917 0 0 1 -8-8zm136 8a8 8 0 1 1 8-8 8.00917 8.00917 0 0 1 -8 8zm-32 0a8 8 0 1 1 8-8 8.00917 8.00917 0 0 1 -8 8zm-32 0a8 8 0 1 1 8-8 8.00917 8.00917 0 0 1 -8 8zm-32 0a8 8 0 1 1 8-8 8.00917 8.00917 0 0 1 -8 8zm118.6239 0a23.98614 23.98614 0 0 0 -38.6239-25.86938 23.94411 23.94411 0 0 0 -32 0 23.94411 23.94411 0 0 0 -32 0 23.94411 23.94411 0 0 0 -32 0 23.98792 23.98792 0 0 0 -38.6239 25.86938h-9.3761v-40h192v40z"/><path d="m296 40c-79.40186 0-144 64.59814-144 144s64.59814 144 144 144 144-64.59814 144-144-64.59814-144-144-144zm49.43872 262.06323a24.82244 24.82244 0 1 0 -.42627.17444 126.80141 126.80141 0 1 1 .42627-.17444zm-1.43872-22.06323a8 8 0 1 1 -8-8 8.00917 8.00917 0 0 1 8 8z"/><path d="m391.13867 211.21533-71.13867-41.07184v-82.14349a24 24 0 0 0 -48 0v82.14349l-71.13867 41.07184a24.00006 24.00006 0 1 0 24 41.56934l71.13867-41.07178 71.13818 41.07178a23.85357 23.85357 0 0 0 11.96143 3.22558 24.12423 24.12423 0 0 0 6.25049-.82812 24.00015 24.00015 0 0 0 5.78857-43.9668zm-95.13867-19.21533a8 8 0 1 1 8-8 8.00917 8.00917 0 0 1 -8 8zm0-112a8.00917 8.00917 0 0 1 8 8v73.3761a23.94217 23.94217 0 0 0 -16 0v-73.3761a8.00917 8.00917 0 0 1 8-8zm-79.13867 158.92822a8 8 0 0 1 -8-13.85644l63.54687-36.68872a23.99855 23.99855 0 0 0 8.01136 13.84991zm169.20508-2.92773a7.9996 7.9996 0 0 1 -10.92774 2.92773l-63.55823-36.69522a23.9984 23.9984 0 0 0 8.01136-13.84985l63.54638 36.68866a8.00947 8.00947 0 0 1 2.92823 10.92868z"/><path d="m296 224a23.99479 23.99479 0 0 0 -21.651 34.349 24.00828 24.00828 0 1 0 11.302 11.302 23.99882 23.99882 0 1 0 10.349-45.651zm-32 64a8 8 0 1 1 8-8 8.00917 8.00917 0 0 1 -8 8zm32-32a8 8 0 1 1 8-8 8.00917 8.00917 0 0 1 -8 8z"/><path d="m384 176a24 24 0 1 0 -24-24 24.02687 24.02687 0 0 0 24 24zm0-32a8 8 0 1 1 -8 8 8.00917 8.00917 0 0 1 8-8z"/><path d="m248 88a24 24 0 1 0 24 24 24.02687 24.02687 0 0 0 -24-24zm0 32a8 8 0 1 1 8-8 8.00917 8.00917 0 0 1 -8 8z"/><path d="m224 176a24 24 0 1 0 -24 24 24.02687 24.02687 0 0 0 24-24zm-32 0a8 8 0 1 1 8 8 8.00917 8.00917 0 0 1 -8-8z"/><path d="m396 440h-37.06177l-13.62695-95.38916c68.64783-21.11914 118.68872-85.12817 118.68872-160.61084 0-92.63574-75.36426-168-168-168s-168 75.36426-168 168c0 75.48267 50.041 139.49194 118.6889 160.61084l-2.037 14.25781 15.83886 2.2627 1.79053-12.532a168.8665 168.8665 0 0 0 67.43774-.00013l13.05709 91.40078h-62.77612v16h116a12 12 0 0 1 0 24h-116v16h116a28 28 0 0 0 0-56zm-252-256c0-83.813 68.187-152 152-152s152 68.187 152 152-68.187 152-152 152-152-68.187-152-152z"/><path d="m311.757 359.675h16v64.65h-16z" transform="matrix(.99 -.141 .141 .99 -52.223 49.16)"/></g></svg>