<svg id="Layer_1" enable-background="new 0 0 256 256" height="512" viewBox="0 0 256 256" width="512" xmlns="http://www.w3.org/2000/svg"><path d="m170.266 4h-84.532l-59.774 59.773v84.533l59.774 59.773h84.532l59.774-59.773v-84.533z" fill="#f4efed"/><path d="m220.04 158.306 10-10v-84.533l-10-10z" fill="#d6d1cf"/><path d="m35.96 53.773-10 10v84.533l10 10z" fill="#fff"/><circle cx="116.48" cy="191.052" fill="#ff4397" r="11.519"/><ellipse cx="153.657" cy="151.812" fill="#ff4397" rx="11.519" ry="11.519" transform="matrix(.707 -.707 .707 .707 -62.342 153.117)"/><circle cx="186.048" cy="163.331" fill="#ff4397" r="11.519"/><ellipse cx="67.342" cy="161.794" fill="#ff4397" rx="11.519" ry="11.519" transform="matrix(.973 -.231 .231 .973 -35.537 19.921)"/><ellipse cx="46.374" cy="116.816" fill="#ff4397" rx="11.52" ry="11.519" transform="matrix(.987 -.16 .16 .987 -18.113 8.937)"/><circle cx="139.519" cy="191.052" fill="#7bac51" r="11.519"/><ellipse cx="78.862" cy="128.335" fill="#7bac51" rx="11.519" ry="11.519" transform="matrix(.965 -.264 .264 .965 -31.096 25.387)"/><ellipse cx="128" cy="168.013" fill="#7bac51" rx="11.519" ry="11.519" transform="matrix(.707 -.707 .707 .707 -81.313 139.719)"/><circle cx="162.558" cy="191.052" fill="#fcc24c" r="11.519"/><circle cx="93.442" cy="191.052" fill="#fcc24c" r="11.519"/><circle cx="98.24" cy="157.328" fill="#fcc24c" r="11.519"/><ellipse cx="84.749" cy="75.119" fill="#fcc24c" rx="11.519" ry="11.519" transform="matrix(.978 -.208 .208 .978 -13.754 19.241)"/><g fill="#690589"><path d="m162.559 204.571c-7.455 0-13.52-6.065-13.52-13.52s6.064-13.52 13.52-13.52c7.455 0 13.52 6.065 13.52 13.52-.001 7.455-6.065 13.52-13.52 13.52zm0-23.039c-5.249 0-9.52 4.271-9.52 9.52s4.271 9.52 9.52 9.52 9.52-4.271 9.52-9.52c-.001-5.249-4.271-9.52-9.52-9.52z"/><path d="m170.266 210.079h-84.533c-.53 0-1.039-.211-1.414-.586l-59.772-59.773c-.375-.375-.586-.884-.586-1.414v-84.533c0-.53.211-1.039.586-1.414l59.772-59.773c.375-.375.884-.586 1.414-.586h84.532c.53 0 1.039.211 1.414.586l59.773 59.773c.375.375.586.884.586 1.414v84.532c0 .53-.211 1.039-.586 1.414l-59.773 59.773c-.374.376-.883.587-1.413.587zm-83.705-4h82.876l58.602-58.602v-82.875l-58.601-58.602h-82.877l-58.6 58.602v82.875z"/><path d="m33.961 91.441c-1.104 0-2-.896-2-2v-12c0-1.104.896-2 2-2s2 .896 2 2v12c0 1.104-.896 2-2 2z"/><path d="m93.441 204.571c-7.455 0-13.52-6.065-13.52-13.52s6.064-13.52 13.52-13.52 13.52 6.065 13.52 13.52-6.065 13.52-13.52 13.52zm0-23.039c-5.249 0-9.52 4.271-9.52 9.52s4.271 9.52 9.52 9.52 9.52-4.271 9.52-9.52-4.271-9.52-9.52-9.52z"/><path d="m116.48 204.571c-7.455 0-13.52-6.065-13.52-13.52s6.064-13.52 13.52-13.52c7.455 0 13.52 6.065 13.52 13.52s-6.064 13.52-13.52 13.52zm0-23.039c-5.249 0-9.52 4.271-9.52 9.52s4.271 9.52 9.52 9.52 9.52-4.271 9.52-9.52-4.271-9.52-9.52-9.52z"/><path d="m139.52 204.571c-7.455 0-13.52-6.065-13.52-13.52s6.064-13.52 13.52-13.52c7.455 0 13.52 6.065 13.52 13.52-.001 7.455-6.065 13.52-13.52 13.52zm0-23.039c-5.249 0-9.52 4.271-9.52 9.52s4.27 9.52 9.52 9.52c5.249 0 9.52-4.271 9.52-9.52-.001-5.249-4.271-9.52-9.52-9.52z"/><path d="m98.24 170.847c-7.455 0-13.52-6.065-13.52-13.52s6.064-13.52 13.52-13.52c7.455 0 13.52 6.065 13.52 13.52s-6.065 13.52-13.52 13.52zm0-23.039c-5.249 0-9.52 4.27-9.52 9.52 0 5.249 4.271 9.52 9.52 9.52s9.52-4.27 9.52-9.52c0-5.249-4.271-9.52-9.52-9.52z"/><path d="m153.657 165.331c-7.455 0-13.52-6.065-13.52-13.52s6.064-13.52 13.52-13.52c7.455 0 13.52 6.065 13.52 13.52 0 7.456-6.065 13.52-13.52 13.52zm0-23.039c-5.249 0-9.52 4.271-9.52 9.52s4.271 9.52 9.52 9.52 9.52-4.27 9.52-9.52c0-5.249-4.271-9.52-9.52-9.52z"/></g><path d="m183.177 246.912h-110.354c-1.641 0-3.173-.816-4.09-2.177-.916-1.361-1.096-3.088-.479-4.608l55.177-135.941c.755-1.86 2.562-3.077 4.569-3.077s3.814 1.217 4.569 3.077l55.177 135.941c.617 1.52.437 3.248-.479 4.608-.916 1.361-2.449 2.177-4.09 2.177zm-103.031-9.862h95.708l-47.854-117.899z" fill="#ff4397"/><path d="m183.177 248.912h-110.355c-2.309 0-4.457-1.143-5.748-3.06s-1.542-4.339-.674-6.478l55.177-135.941c1.068-2.627 3.589-4.325 6.423-4.325s5.355 1.697 6.422 4.324l55.178 135.943c.868 2.139.617 4.561-.673 6.477-1.292 1.917-3.441 3.06-5.75 3.06zm-55.177-145.804c-1.198 0-2.265.718-2.717 1.83l-55.176 135.94c-.368.905-.262 1.929.284 2.74.546.81 1.455 1.294 2.431 1.294h110.355c.977 0 1.886-.484 2.433-1.295.545-.81.651-1.833.283-2.738l-55.177-135.942c-.451-1.11-1.518-1.829-2.716-1.829zm47.854 135.942h-95.708c-.665 0-1.287-.331-1.659-.883-.371-.552-.444-1.253-.194-1.869l47.854-117.899c.307-.754 1.039-1.248 1.854-1.248s1.547.494 1.854 1.248l47.854 117.899c.25.616.177 1.317-.194 1.869-.374.552-.996.883-1.661.883zm-92.737-4h89.766l-44.883-110.581z" fill="#690589"/><path d="m78.861 141.855c-7.455 0-13.52-6.065-13.52-13.52s6.064-13.52 13.52-13.52c7.455 0 13.52 6.065 13.52 13.52s-6.065 13.52-13.52 13.52zm0-23.04c-5.249 0-9.52 4.271-9.52 9.52s4.271 9.52 9.52 9.52 9.52-4.271 9.52-9.52-4.271-9.52-9.52-9.52z" fill="#690589"/><path d="m128 181.532c-7.455 0-13.52-6.065-13.52-13.52s6.064-13.52 13.52-13.52c7.455 0 13.52 6.065 13.52 13.52s-6.065 13.52-13.52 13.52zm0-23.039c-5.249 0-9.52 4.271-9.52 9.52s4.271 9.52 9.52 9.52 9.52-4.27 9.52-9.52c0-5.249-4.271-9.52-9.52-9.52z" fill="#690589"/><path d="m186.048 176.851c-7.455 0-13.52-6.065-13.52-13.52 0-7.454 6.064-13.52 13.52-13.52 7.455 0 13.52 6.065 13.52 13.52-.001 7.455-6.065 13.52-13.52 13.52zm0-23.039c-5.249 0-9.52 4.271-9.52 9.52s4.27 9.52 9.52 9.52c5.249 0 9.52-4.271 9.52-9.52-.001-5.249-4.271-9.52-9.52-9.52z" fill="#690589"/><path d="m84.749 88.639c-7.455 0-13.52-6.065-13.52-13.52 0-7.454 6.064-13.519 13.52-13.519 7.454 0 13.519 6.064 13.519 13.519s-6.065 13.52-13.519 13.52zm0-23.039c-5.249 0-9.52 4.27-9.52 9.519s4.271 9.52 9.52 9.52 9.519-4.271 9.519-9.52-4.27-9.519-9.519-9.519z" fill="#690589"/><path d="m67.342 175.314c-7.455 0-13.519-6.065-13.519-13.52 0-7.454 6.064-13.52 13.519-13.52s13.52 6.065 13.52 13.52c-.001 7.455-6.065 13.52-13.52 13.52zm0-23.04c-5.249 0-9.519 4.271-9.519 9.52s4.271 9.52 9.519 9.52 9.52-4.271 9.52-9.52c-.001-5.249-4.271-9.52-9.52-9.52z" fill="#690589"/><path d="m46.374 130.335c-7.455 0-13.52-6.065-13.52-13.52s6.064-13.519 13.52-13.519c7.455 0 13.52 6.064 13.52 13.519s-6.065 13.52-13.52 13.52zm0-23.039c-5.249 0-9.52 4.27-9.52 9.519s4.271 9.52 9.52 9.52 9.52-4.27 9.52-9.52c0-5.249-4.271-9.519-9.52-9.519z" fill="#690589"/><path d="m195.177 231.961h-134.354c-2.761 0-5 2.239-5 5v15.039h144.355v-15.039c-.001-2.761-2.239-5-5.001-5z" fill="#7bac51"/><path d="m195.177 231.961h-10c2.761 0 5 2.239 5 5v15.039h10v-15.039c0-2.761-2.238-5-5-5z" fill="#5d8e33"/><path d="m60.823 231.961h10c-2.761 0-5 2.239-5 5v15.039h-10v-15.039c0-2.761 2.238-5 5-5z" fill="#99ca6f"/><path d="m200.178 254h-144.356c-1.104 0-2-.895-2-2v-15.039c0-3.86 3.141-7 7-7h134.355c3.859 0 7 3.14 7 7v15.039c.001 1.105-.895 2-1.999 2zm-142.356-4h140.355v-13.039c0-1.654-1.346-3-3-3h-134.355c-1.654 0-3 1.346-3 3z" fill="#690589"/><path d="m139.355 78.625h-22.711l-16.059 16.059v22.711l16.059 16.059h22.711l16.06-16.059v-22.711z" fill="#fcc24c"/><path d="m139.356 78.625h-6l16.059 16.059v22.711l-16.059 16.059h6l16.059-16.059v-22.711z" fill="#dea42e"/><path d="m116.644 133.454h6l-16.059-16.059v-22.711l16.059-16.059h-6l-16.059 16.059v22.711z" fill="#fce06a"/><path d="m139.355 135.454h-22.711c-.53 0-1.039-.211-1.414-.586l-16.06-16.059c-.375-.375-.586-.884-.586-1.414v-22.711c0-.53.211-1.039.586-1.414l16.06-16.06c.375-.375.884-.586 1.414-.586h22.711c.53 0 1.039.211 1.414.586l16.06 16.06c.375.375.586.884.586 1.414v22.711c0 .53-.211 1.039-.586 1.414l-16.06 16.059c-.374.375-.883.586-1.414.586zm-21.882-4h21.055l14.888-14.888v-21.053l-14.888-14.888h-21.055l-14.888 14.888v21.054z" fill="#690589"/><circle cx="128" cy="106.04" fill="#ff4397" r="14.137"/><path d="m128 122.177c-8.898 0-16.138-7.239-16.138-16.137s7.239-16.137 16.138-16.137 16.138 7.239 16.138 16.137-7.24 16.137-16.138 16.137zm0-28.275c-6.692 0-12.138 5.445-12.138 12.137s5.445 12.137 12.138 12.137 12.138-5.445 12.138-12.137-5.446-12.137-12.138-12.137z" fill="#690589"/></svg>