<svg id="Layer_1" enable-background="new 0 0 512 512" height="512" viewBox="0 0 512 512" width="512" xmlns="http://www.w3.org/2000/svg"><g><path d="m66.03 7.5h379.94v139.3h-379.94z" fill="#72869e"/><path d="m66.03 146.8h379.94v357.7h-379.94z" fill="#fff"/><g><circle cx="132.017" cy="241.504" fill="#ea5172" r="26.114"/><circle cx="214.672" cy="241.504" fill="#faed8a" r="26.114"/><circle cx="297.328" cy="241.504" fill="#bfedb3" r="26.114"/><circle cx="379.983" cy="241.504" fill="#ea5172" r="26.114"/></g><g><circle cx="132.017" cy="329.996" fill="#bfedb3" r="26.114"/><circle cx="214.672" cy="329.996" fill="#72869e" r="26.114"/><circle cx="297.328" cy="329.996" fill="#ea5172" r="26.114"/><circle cx="379.983" cy="329.996" fill="#72869e" r="26.114"/></g><path d="m66.03 7.5h20v139.3h-20z" fill="#536275"/><path d="m66.03 146.8h20v357.7h-20z" fill="#e3edf6"/><path d="m125.904 241.504c0-10.879 6.654-20.201 16.114-24.126-17.112-7.101-36.114 5.478-36.114 24.126 0 18.671 19.026 31.217 36.114 24.126-9.46-3.924-16.114-13.246-16.114-24.126z" fill="#b3387f"/><path d="m208.559 241.504c0-10.879 6.654-20.201 16.114-24.126-17.112-7.101-36.114 5.478-36.114 24.126 0 18.671 19.026 31.217 36.114 24.126-9.46-3.924-16.114-13.246-16.114-24.126z" fill="#e8ab4c"/><path d="m291.214 241.504c0-10.879 6.654-20.201 16.114-24.126-17.112-7.101-36.114 5.478-36.114 24.126 0 18.671 19.026 31.217 36.114 24.126-9.459-3.924-16.114-13.246-16.114-24.126z" fill="#0ea8b2"/><path d="m373.869 241.504c0-10.879 6.654-20.201 16.114-24.126-17.112-7.101-36.113 5.478-36.113 24.126 0 18.675 19.029 31.216 36.113 24.126-9.459-3.924-16.114-13.246-16.114-24.126z" fill="#b3387f"/><path d="m125.904 329.996c0-10.879 6.654-20.201 16.114-24.126-17.112-7.101-36.114 5.478-36.114 24.126 0 18.671 19.026 31.217 36.114 24.126-9.46-3.924-16.114-13.246-16.114-24.126z" fill="#0ea8b2"/><path d="m208.559 329.996c0-10.879 6.654-20.201 16.114-24.126-17.112-7.101-36.114 5.478-36.114 24.126 0 18.671 19.026 31.217 36.114 24.126-9.46-3.924-16.114-13.246-16.114-24.126z" fill="#536275"/><path d="m291.214 329.996c0-10.879 6.654-20.201 16.114-24.126-17.112-7.101-36.114 5.478-36.114 24.126 0 18.671 19.026 31.217 36.114 24.126-9.459-3.924-16.114-13.246-16.114-24.126z" fill="#b3387f"/><path d="m373.869 329.996c0-10.879 6.654-20.201 16.114-24.126-17.112-7.101-36.113 5.478-36.113 24.126 0 18.675 19.029 31.216 36.113 24.126-9.459-3.924-16.114-13.246-16.114-24.126z" fill="#536275"/><g><path d="m58.53 0v49.78h15v-34.78h364.94v124.3h-364.94v-74.52h-15v447.22h394.94v-44h-15v29h-364.94v-342.7h364.94v298.7h15c0-18.162 0-436.874 0-453z"/><path d="m149.449 102.446h-25.515l-.001-65.758h-15l.001 80.758h40.515z"/><path d="m161.223 36.613v80.833h48.016v-80.833zm33.015 65.833h-18.016v-50.833h18.016z"/><path d="m355.051 36.613v80.833h48.016v-80.833zm33.016 65.833h-18.016v-50.833h18.016z"/><path d="m255.534 117.613v-66h19.5v-15h-54v15h19.5v66z"/><path d="m323.067 117.613v-66h19.5v-15h-54v15h19.5v66z"/><path d="m110.442 391.21h15v87.79h-15z"/><path d="m147.108 391.21h15v87.79h-15z"/><path d="m171.05 391.21h15v87.79h-15z"/><path d="m194.992 391.21h15v87.79h-15z"/><path d="m218.934 391.21h15v87.79h-15z"/><path d="m257.225 391.21h15v87.79h-15z"/><path d="m281.167 391.21h15v87.79h-15z"/><path d="m305.108 391.21h15v87.79h-15z"/><path d="m329.05 391.21h15v87.79h-15z"/><path d="m362.616 391.21h15v87.79h-15z"/><path d="m386.558 391.21h15v87.79h-15z"/><path d="m132.017 207.891c-18.535 0-33.613 15.079-33.613 33.613s15.079 33.614 33.613 33.614 33.614-15.079 33.614-33.614-15.079-33.613-33.614-33.613zm0 52.227c-10.263 0-18.613-8.35-18.613-18.614 0-10.263 8.35-18.613 18.613-18.613 10.264 0 18.614 8.35 18.614 18.613 0 10.264-8.35 18.614-18.614 18.614z"/><path d="m214.672 207.891c-18.535 0-33.613 15.079-33.613 33.613s15.079 33.614 33.613 33.614 33.614-15.079 33.614-33.614-15.079-33.613-33.614-33.613zm0 52.227c-10.263 0-18.613-8.35-18.613-18.614 0-10.263 8.35-18.613 18.613-18.613 10.264 0 18.614 8.35 18.614 18.613 0 10.264-8.35 18.614-18.614 18.614z"/><path d="m297.328 275.118c18.535 0 33.613-15.079 33.613-33.614s-15.079-33.613-33.613-33.613-33.614 15.079-33.614 33.613 15.079 33.614 33.614 33.614zm0-52.227c10.263 0 18.613 8.35 18.613 18.613 0 10.264-8.35 18.614-18.613 18.614-10.264 0-18.614-8.35-18.614-18.614 0-10.263 8.35-18.613 18.614-18.613z"/><path d="m379.983 207.891c-18.535 0-33.614 15.079-33.614 33.613s15.079 33.614 33.614 33.614 33.613-15.079 33.613-33.614-15.078-33.613-33.613-33.613zm0 52.227c-10.264 0-18.614-8.35-18.614-18.614 0-10.263 8.35-18.613 18.614-18.613 10.263 0 18.613 8.35 18.613 18.613 0 10.264-8.35 18.614-18.613 18.614z"/><path d="m132.017 296.383c-18.535 0-33.613 15.079-33.613 33.614s15.079 33.613 33.613 33.613 33.614-15.079 33.614-33.613-15.079-33.614-33.614-33.614zm0 52.227c-10.263 0-18.613-8.35-18.613-18.613 0-10.264 8.35-18.614 18.613-18.614 10.264 0 18.614 8.35 18.614 18.614 0 10.263-8.35 18.613-18.614 18.613z"/><path d="m248.286 329.997c0-18.535-15.079-33.614-33.614-33.614s-33.613 15.079-33.613 33.614 15.079 33.613 33.613 33.613 33.614-15.079 33.614-33.613zm-33.614 18.613c-10.263 0-18.613-8.35-18.613-18.613 0-10.264 8.35-18.614 18.613-18.614 10.264 0 18.614 8.35 18.614 18.614 0 10.263-8.35 18.613-18.614 18.613z"/><path d="m330.941 329.997c0-18.535-15.079-33.614-33.613-33.614s-33.614 15.079-33.614 33.614 15.079 33.613 33.614 33.613 33.613-15.079 33.613-33.613zm-33.613 18.613c-10.264 0-18.614-8.35-18.614-18.613 0-10.264 8.35-18.614 18.614-18.614 10.263 0 18.613 8.35 18.613 18.614 0 10.263-8.35 18.613-18.613 18.613z"/><path d="m413.596 329.997c0-18.535-15.079-33.614-33.613-33.614s-33.614 15.079-33.614 33.614 15.079 33.613 33.614 33.613 33.613-15.079 33.613-33.613zm-33.613 18.613c-10.264 0-18.614-8.35-18.614-18.613 0-10.264 8.35-18.614 18.614-18.614 10.263 0 18.613 8.35 18.613 18.614 0 10.263-8.35 18.613-18.613 18.613z"/></g><g><path d="m310.508 188.5h-15v-15h15zm-45 0h-15v-15h15zm-45 0h-15v-15h15z"/></g></g></svg>